<?xml version="1.0" standalone="no"?>
<!DOCTYPE svg PUBLIC "-//W3C//DTD SVG 20010904//EN"
 "http://www.w3.org/TR/2001/REC-SVG-20010904/DTD/svg10.dtd">
<svg version="1.0" xmlns="http://www.w3.org/2000/svg"
 width="720.000000pt" height="720.000000pt" viewBox="0 0 720.000000 720.000000"
 preserveAspectRatio="xMidYMid meet">
<metadata>
Created by potrace 1.14, written by Peter Selinger 2001-2017
</metadata>
<g transform="translate(0.000000,720.000000) scale(0.100000,-0.100000)"
fill="#000000" stroke="none">
<path d="M1439 5256 c-2 -2 -28 -7 -58 -10 -225 -27 -490 -129 -694 -268 -117
-80 -313 -274 -397 -396 -85 -121 -162 -272 -204 -403 -19 -58 -37 -116 -40
-130 -2 -13 -12 -60 -21 -104 -19 -89 -29 -391 -15 -466 4 -24 11 -63 14 -86
22 -164 119 -416 221 -575 267 -412 683 -675 1164 -735 74 -9 289 -9 371 0
158 17 327 63 458 123 29 13 54 24 56 24 9 0 172 94 177 102 3 5 6 159 6 341
l0 332 -101 -101 c-178 -178 -362 -275 -604 -319 -96 -17 -311 -12 -402 10
-36 8 -73 17 -83 20 -129 31 -321 142 -445 259 -166 156 -298 403 -330 621 -9
63 -9 298 1 345 4 19 9 49 12 65 19 100 94 270 168 380 51 77 214 239 292 291
119 79 269 140 417 168 69 13 324 16 373 4 11 -3 38 -9 60 -13 22 -5 42 -9 45
-10 112 -25 370 -157 388 -197 2 -5 8 -8 13 -8 5 0 9 122 9 293 l0 294 -102
40 c-96 38 -259 84 -353 98 -43 7 -390 16 -396 11z"/>
<path d="M2733 5253 c3 -5 87 -195 187 -423 100 -228 190 -433 200 -455 10
-22 33 -74 50 -115 18 -41 41 -95 52 -120 11 -24 54 -121 95 -215 41 -93 80
-184 88 -200 7 -17 22 -50 33 -75 11 -25 28 -65 40 -90 11 -25 52 -119 92
-210 40 -91 78 -178 86 -195 27 -60 318 -724 381 -870 36 -82 76 -175 90 -205
14 -30 34 -75 45 -100 15 -34 21 -41 28 -30 4 8 151 362 325 785 174 424 323
784 330 800 7 17 38 90 68 163 30 73 58 134 62 135 4 1 25 -38 46 -88 22 -49
43 -99 49 -110 11 -23 248 -563 320 -730 26 -60 60 -137 75 -170 15 -33 31
-69 35 -80 8 -21 134 -307 197 -450 53 -118 64 -144 93 -212 l26 -62 17 37 c9
20 21 49 26 65 6 15 19 46 29 70 18 40 42 97 152 367 46 112 60 145 90 215 5
11 50 121 100 245 51 124 98 239 105 255 7 17 23 55 35 85 11 30 27 69 34 85
8 17 35 82 61 145 25 63 52 129 60 145 7 17 28 66 45 110 17 44 38 94 45 110
8 17 93 224 190 460 97 237 183 444 190 460 7 17 48 116 91 220 42 105 83 205
91 223 l13 32 -273 0 -273 0 -128 -322 c-71 -178 -135 -336 -142 -353 -7 -16
-97 -241 -200 -500 -102 -258 -192 -483 -199 -500 -7 -16 -25 -61 -40 -100
-15 -38 -33 -83 -40 -100 -8 -16 -30 -74 -51 -127 l-37 -98 -19 43 c-11 23
-123 285 -250 582 -126 297 -268 628 -314 735 -46 108 -84 201 -84 208 0 7 -4
12 -10 12 -5 0 -10 5 -10 12 0 23 -164 391 -168 377 -3 -8 -38 -99 -79 -204
-41 -104 -100 -253 -129 -330 -30 -77 -59 -149 -64 -160 -5 -11 -64 -157 -130
-325 -66 -168 -127 -318 -134 -335 -8 -16 -17 -41 -21 -55 -4 -14 -18 -47 -30
-75 -12 -27 -60 -146 -106 -262 -46 -117 -86 -213 -89 -213 -3 0 -23 42 -44
93 -21 50 -47 110 -56 132 -10 22 -64 148 -120 280 -56 132 -106 249 -111 260
-5 11 -134 313 -287 670 l-278 650 -278 3 c-152 1 -275 -1 -273 -5z"/>
</g>
</svg>
