<?xml version="1.0" encoding="UTF-8" standalone="no"?>
<svg
   xmlns:dc="http://purl.org/dc/elements/1.1/"
   xmlns:cc="http://creativecommons.org/ns#"
   xmlns:rdf="http://www.w3.org/1999/02/22-rdf-syntax-ns#"
   xmlns:svg="http://www.w3.org/2000/svg"
   xmlns="http://www.w3.org/2000/svg"
   viewBox="0 0 56.604134 56.604134"
   height="56.604134"
   width="56.604134"
   xml:space="preserve"
   id="svg2"
   version="1.1"><metadata
     id="metadata8"><rdf:RDF><cc:Work
         rdf:about=""><dc:format>image/svg+xml</dc:format><dc:type
           rdf:resource="http://purl.org/dc/dcmitype/StillImage" /></cc:Work></rdf:RDF></metadata><defs
     id="defs6"><clipPath
       id="clipPath18"
       clipPathUnits="userSpaceOnUse"><path
         id="path16"
         d="M 0,42.453 H 42.453 V 0 H 0 Z" /></clipPath></defs><g
     transform="matrix(1.3333333,0,0,-1.3333333,0,56.604133)"
     id="g10"><g
       id="g12"><g
         clip-path="url(#clipPath18)"
         id="g14"><g
           transform="translate(21.2266,1.5996)"
           id="g20"><path
             id="path22"
             style="fill:#322d2c;fill-opacity:1;fill-rule:nonzero;stroke:none"
             d="M 0,0 C -4.886,0 -9.35,1.806 -12.789,4.771 L 14.856,32.416 C 17.821,28.977 19.627,24.513 19.627,19.627 19.627,8.805 10.822,0 0,0 m -19.627,19.627 c 0,10.822 8.805,19.627 19.627,19.627 5.361,0 10.224,-2.166 13.77,-5.662 L -13.964,5.857 c -3.497,3.546 -5.663,8.408 -5.663,13.77 M 0,40.854 c -11.705,0 -21.227,-9.523 -21.227,-21.227 C -21.227,7.923 -11.705,-1.6 0,-1.6 c 11.705,0 21.227,9.523 21.227,21.227 0,11.704 -9.522,21.227 -21.227,21.227" /></g><g
           transform="translate(27.2554,7.4331)"
           id="g24"><path
             id="path26"
             style="fill:#322d2c;fill-opacity:1;fill-rule:nonzero;stroke:none"
             d="m 0,0 v 18.896 l 4.104,2.22 V 2.018 Z M -1.6,-0.215 H -15.368 V 18.573 H -1.6 Z m -7.043,25.186 5.662,-4.799 h -11.46 z m 0.981,3.362 5.557,1.311 0.057,-1.046 -5.614,-1.306 z m 10.749,-5.947 -3.787,-2.05 -6.417,5.44 5.584,1.299 z m 2.616,-0.404 0.018,0.01 -6.147,6.239 -0.186,3.409 -8.65,-2.041 v -3.062 l -7.689,-6.365 h -0.016 v -0.013 l -0.005,-0.004 0.005,-0.007 V -1.815 H 0 v 0.032 l 5.703,2.805 z" /></g></g></g></g></svg>