<?xml version="1.0" encoding="UTF-8" standalone="no"?>
<svg
   xmlns:dc="http://purl.org/dc/elements/1.1/"
   xmlns:cc="http://creativecommons.org/ns#"
   xmlns:rdf="http://www.w3.org/1999/02/22-rdf-syntax-ns#"
   xmlns:svg="http://www.w3.org/2000/svg"
   xmlns="http://www.w3.org/2000/svg"
   viewBox="0 0 56.604134 56.604134"
   height="56.604134"
   width="56.604134"
   xml:space="preserve"
   id="svg2"
   version="1.1"><metadata
     id="metadata8"><rdf:RDF><cc:Work
         rdf:about=""><dc:format>image/svg+xml</dc:format><dc:type
           rdf:resource="http://purl.org/dc/dcmitype/StillImage" /></cc:Work></rdf:RDF></metadata><defs
     id="defs6"><clipPath
       id="clipPath18"
       clipPathUnits="userSpaceOnUse"><path
         id="path16"
         d="M 0,42.453 H 42.453 V 0 H 0 Z" /></clipPath></defs><g
     transform="matrix(1.3333333,0,0,-1.3333333,0,56.604133)"
     id="g10"><g
       id="g12"><g
         clip-path="url(#clipPath18)"
         id="g14"><g
           transform="translate(20.623,20.2896)"
           id="g20"><path
             id="path22"
             style="fill:#322d2c;fill-opacity:1;fill-rule:nonzero;stroke:none"
             d="m 0,0 c 0,0 -4.192,0.62 -6.335,2.858 -2.144,2.239 -2.716,4.335 -2.716,6.336 0,0 4.478,-0.048 6.669,-2.429 C -0.19,4.383 0.62,2.287 0,0" /></g><g
           transform="translate(20.623,12.0327)"
           id="g24"><path
             id="path26"
             style="fill:#322d2c;fill-opacity:1;fill-rule:nonzero;stroke:none"
             d="m 0,0 c 0,0 -4.192,0.619 -6.335,2.858 -2.144,2.239 -2.716,4.335 -2.716,6.336 0,0 4.478,-0.048 6.669,-2.43 C -0.19,4.383 0.62,2.287 0,0" /></g><g
           transform="translate(20.623,3.7759)"
           id="g28"><path
             id="path30"
             style="fill:#322d2c;fill-opacity:1;fill-rule:nonzero;stroke:none"
             d="m 0,0 c 0,0 -4.192,0.619 -6.335,2.858 -2.144,2.239 -2.716,4.335 -2.716,6.336 0,0 4.478,-0.048 6.669,-2.43 C -0.19,4.382 0.62,2.287 0,0" /></g><g
           transform="translate(21.7461,20.2896)"
           id="g32"><path
             id="path34"
             style="fill:#322d2c;fill-opacity:1;fill-rule:nonzero;stroke:none"
             d="m 0,0 c 0,0 4.192,0.62 6.335,2.858 2.144,2.239 2.716,4.335 2.716,6.336 0,0 -4.478,-0.048 -6.669,-2.429 C 0.19,4.383 -0.62,2.287 0,0" /></g><g
           transform="translate(21.7461,12.0327)"
           id="g36"><path
             id="path38"
             style="fill:#322d2c;fill-opacity:1;fill-rule:nonzero;stroke:none"
             d="m 0,0 c 0,0 4.192,0.619 6.335,2.858 2.144,2.239 2.716,4.335 2.716,6.336 0,0 -4.478,-0.048 -6.669,-2.43 C 0.19,4.383 -0.62,2.287 0,0" /></g><g
           transform="translate(21.7461,3.7759)"
           id="g40"><path
             id="path42"
             style="fill:#322d2c;fill-opacity:1;fill-rule:nonzero;stroke:none"
             d="m 0,0 c 0,0 4.192,0.619 6.335,2.858 2.144,2.239 2.716,4.335 2.716,6.336 0,0 -4.478,-0.048 -6.669,-2.43 C 0.19,4.382 -0.62,2.287 0,0" /></g><g
           transform="translate(21.2266,39.3916)"
           id="g44"><path
             id="path46"
             style="fill:#322d2c;fill-opacity:1;fill-rule:nonzero;stroke:none"
             d="m 0,0 c 0,0 -2.794,-2.906 -2.794,-6.574 0,-3.668 2.794,-6.24 2.794,-6.24 0,0 2.794,2.572 2.794,6.24 C 2.794,-2.906 0,0 0,0" /></g><g
           transform="translate(21.2266,1.5996)"
           id="g48"><path
             id="path50"
             style="fill:#322d2c;fill-opacity:1;fill-rule:nonzero;stroke:none"
             d="m 0,0 c -4.886,0 -9.35,1.806 -12.788,4.77 l 27.645,27.645 c 2.964,-3.438 4.77,-7.902 4.77,-12.788 C 19.627,8.805 10.822,0 0,0 m -19.627,19.627 c 0,10.822 8.805,19.627 19.627,19.627 5.362,0 10.224,-2.166 13.77,-5.662 L -13.965,5.857 c -3.496,3.546 -5.662,8.408 -5.662,13.77 M 0,40.854 c -11.705,0 -21.227,-9.522 -21.227,-21.227 C -21.227,7.922 -11.705,-1.6 0,-1.6 c 11.705,0 21.227,9.522 21.227,21.227 0,11.705 -9.522,21.227 -21.227,21.227" /></g></g></g></g></svg>