<?xml version="1.0" encoding="UTF-8" standalone="no"?>
<svg
   xmlns:dc="http://purl.org/dc/elements/1.1/"
   xmlns:cc="http://creativecommons.org/ns#"
   xmlns:rdf="http://www.w3.org/1999/02/22-rdf-syntax-ns#"
   xmlns:svg="http://www.w3.org/2000/svg"
   xmlns="http://www.w3.org/2000/svg"
   viewBox="0 0 56.604134 56.604134"
   height="56.604134"
   width="56.604134"
   xml:space="preserve"
   id="svg2"
   version="1.1"><metadata
     id="metadata8"><rdf:RDF><cc:Work
         rdf:about=""><dc:format>image/svg+xml</dc:format><dc:type
           rdf:resource="http://purl.org/dc/dcmitype/StillImage" /></cc:Work></rdf:RDF></metadata><defs
     id="defs6"><clipPath
       id="clipPath18"
       clipPathUnits="userSpaceOnUse"><path
         id="path16"
         d="M 0,42.453 H 42.453 V 0 H 0 Z" /></clipPath></defs><g
     transform="matrix(1.3333333,0,0,-1.3333333,0,56.604133)"
     id="g10"><g
       id="g12"><g
         clip-path="url(#clipPath18)"
         id="g14"><g
           transform="translate(21.2266,40.8535)"
           id="g20"><path
             id="path22"
             style="fill:#322d2c;fill-opacity:1;fill-rule:nonzero;stroke:none"
             d="m 0,0 c -10.822,0 -19.627,-8.805 -19.627,-19.627 0,-10.822 8.805,-19.627 19.627,-19.627 10.822,0 19.627,8.805 19.627,19.627 C 19.627,-8.805 10.822,0 0,0 m 0,-40.854 c -11.705,0 -21.227,9.522 -21.227,21.227 0,11.705 9.522,21.227 21.227,21.227 11.705,0 21.227,-9.522 21.227,-21.227 0,-11.705 -9.522,-21.227 -21.227,-21.227" /></g><g
           transform="translate(10.1416,16.9546)"
           id="g24"><path
             id="path26"
             style="fill:#322d2c;fill-opacity:1;fill-rule:nonzero;stroke:none"
             d="M 0,0 -4.119,4.706 V 0 h -1.624 v 10.394 h 1.624 V 6.107 l 3.334,4.287 H 1.26 L -2.55,5.393 2.031,0 Z" /></g><g
           transform="translate(15.1685,23.1177)"
           id="g28"><path
             id="path30"
             style="fill:#322d2c;fill-opacity:1;fill-rule:nonzero;stroke:none"
             d="M 0,0 H 3.796 V -1.471 H 0 V -4.692 H 4.609 V -6.163 H -0.014 -1.625 V 4.23 h 1.611 4.623 V 2.773 L 0,2.773 Z" /></g><g
           transform="translate(28.3765,25.8911)"
           id="g32"><path
             id="path34"
             style="fill:#322d2c;fill-opacity:1;fill-rule:nonzero;stroke:none"
             d="M 0,0 H -2.858 V -8.937 H -4.497 V 0 H -7.354 V 1.457 H 0 Z" /></g><g
           transform="translate(31.3306,24.6724)"
           id="g36"><path
             id="path38"
             style="fill:#322d2c;fill-opacity:1;fill-rule:nonzero;stroke:none"
             d="m 0,0 c -0.672,-0.672 -1.05,-1.568 -1.05,-2.521 0,-0.953 0.378,-1.849 1.05,-2.521 0.672,-0.673 1.569,-1.051 2.521,-1.051 0.953,0 1.85,0.378 2.522,1.051 0.672,0.672 1.05,1.568 1.05,2.521 0,0.953 -0.378,1.849 -1.05,2.521 C 4.371,0.673 3.474,1.051 2.521,1.051 1.569,1.051 0.672,0.673 0,0 m 0.504,-7.312 c -0.63,0.267 -1.176,0.645 -1.652,1.121 -0.477,0.476 -0.855,1.023 -1.121,1.653 -0.266,0.63 -0.406,1.316 -0.406,2.017 0,0.701 0.14,1.387 0.406,2.031 0.266,0.617 0.644,1.163 1.121,1.653 0.476,0.477 1.022,0.841 1.652,1.107 0.631,0.266 1.317,0.406 2.017,0.406 0.701,0 1.387,-0.14 2.032,-0.406 C 5.169,2.004 5.715,1.64 6.206,1.163 6.682,0.673 7.046,0.127 7.312,-0.49 7.578,-1.134 7.718,-1.82 7.718,-2.521 7.718,-3.222 7.578,-3.908 7.312,-4.538 7.046,-5.168 6.682,-5.715 6.206,-6.191 5.715,-6.667 5.169,-7.045 4.553,-7.312 3.908,-7.578 3.222,-7.718 2.521,-7.718 c -0.7,0 -1.386,0.14 -2.017,0.406" /></g></g></g></g></svg>