<?xml version="1.0" encoding="UTF-8" standalone="no"?>
<svg
   xmlns:dc="http://purl.org/dc/elements/1.1/"
   xmlns:cc="http://creativecommons.org/ns#"
   xmlns:rdf="http://www.w3.org/1999/02/22-rdf-syntax-ns#"
   xmlns:svg="http://www.w3.org/2000/svg"
   xmlns="http://www.w3.org/2000/svg"
   viewBox="0 0 56.604134 56.604134"
   height="56.604134"
   width="56.604134"
   xml:space="preserve"
   id="svg2"
   version="1.1"><metadata
     id="metadata8"><rdf:RDF><cc:Work
         rdf:about=""><dc:format>image/svg+xml</dc:format><dc:type
           rdf:resource="http://purl.org/dc/dcmitype/StillImage" /></cc:Work></rdf:RDF></metadata><defs
     id="defs6"><clipPath
       id="clipPath18"
       clipPathUnits="userSpaceOnUse"><path
         id="path16"
         d="M 0,42.453 H 42.453 V 0 H 0 Z" /></clipPath></defs><g
     transform="matrix(1.3333333,0,0,-1.3333333,0,56.604133)"
     id="g10"><g
       id="g12"><g
         clip-path="url(#clipPath18)"
         id="g14"><g
           transform="translate(21.2266,40.8535)"
           id="g20"><path
             id="path22"
             style="fill:#322d2c;fill-opacity:1;fill-rule:nonzero;stroke:none"
             d="m 0,0 c -10.822,0 -19.627,-8.805 -19.627,-19.627 0,-10.822 8.805,-19.627 19.627,-19.627 10.822,0 19.627,8.805 19.627,19.627 C 19.627,-8.805 10.822,0 0,0 m 0,-40.854 c -11.705,0 -21.227,9.522 -21.227,21.227 0,11.705 9.522,21.227 21.227,21.227 11.705,0 21.227,-9.522 21.227,-21.227 0,-11.705 -9.522,-21.227 -21.227,-21.227" /></g><g
           transform="translate(9.2432,29.6392)"
           id="g24"><path
             id="path26"
             style="fill:#322d2c;fill-opacity:1;fill-rule:nonzero;stroke:none"
             d="m 0,0 c 0,0 5.042,-5.2 6.266,-8.475 1.224,-3.274 2.628,-8.236 2.628,-8.236 0,0 4.543,12.504 5.595,13.905 1.052,1.402 4.328,3.695 4.328,3.695 0,0 -4.446,0.702 -7.021,-5.898 0,0 -0.286,3.792 0.536,5.477 0.822,1.685 2.741,2.949 7.094,2.855 4.353,-0.093 4.541,2.013 4.541,2.013 0,0 -1.227,-2.996 -1.62,-3.838 -0.393,-0.843 -1.001,-4.681 -3.342,-6.554 -2.34,-1.872 -5.243,-2.255 -5.243,-2.255 0,0 -1.779,-5.842 -2.481,-9.4 -0.702,-3.558 -1.266,-7.63 -2.833,-7.957 -1.567,-0.328 -1.659,5.102 -3.135,10.813 C 3.838,-8.145 0,0 0,0" /></g></g></g></g></svg>