<?xml version="1.0" encoding="UTF-8" standalone="no"?>
<svg
   xmlns:dc="http://purl.org/dc/elements/1.1/"
   xmlns:cc="http://creativecommons.org/ns#"
   xmlns:rdf="http://www.w3.org/1999/02/22-rdf-syntax-ns#"
   xmlns:svg="http://www.w3.org/2000/svg"
   xmlns="http://www.w3.org/2000/svg"
   viewBox="0 0 56.604134 56.604134"
   height="56.604134"
   width="56.604134"
   xml:space="preserve"
   id="svg2"
   version="1.1"><metadata
     id="metadata8"><rdf:RDF><cc:Work
         rdf:about=""><dc:format>image/svg+xml</dc:format><dc:type
           rdf:resource="http://purl.org/dc/dcmitype/StillImage" /></cc:Work></rdf:RDF></metadata><defs
     id="defs6"><clipPath
       id="clipPath18"
       clipPathUnits="userSpaceOnUse"><path
         id="path16"
         d="M 0,42.453 H 42.453 V 0 H 0 Z" /></clipPath></defs><g
     transform="matrix(1.3333333,0,0,-1.3333333,0,56.604133)"
     id="g10"><g
       id="g12"><g
         clip-path="url(#clipPath18)"
         id="g14"><g
           transform="translate(21.2266,1.5996)"
           id="g20"><path
             id="path22"
             style="fill:#322d2c;fill-opacity:1;fill-rule:nonzero;stroke:none"
             d="M 0,0 C -4.886,0 -9.35,1.806 -12.789,4.771 L 14.856,32.416 C 17.821,28.977 19.627,24.513 19.627,19.627 19.627,8.805 10.822,0 0,0 m -19.627,19.627 c 0,10.822 8.805,19.627 19.627,19.627 5.361,0 10.224,-2.166 13.77,-5.662 L -13.964,5.857 c -3.497,3.546 -5.663,8.408 -5.663,13.77 M 0,40.854 c -11.705,0 -21.227,-9.523 -21.227,-21.227 C -21.227,7.923 -11.705,-1.6 0,-1.6 c 11.705,0 21.227,9.523 21.227,21.227 0,11.704 -9.522,21.227 -21.227,21.227" /></g><g
           transform="translate(29.7529,22.2559)"
           id="g24"><path
             id="path26"
             style="fill:#322d2c;fill-opacity:1;fill-rule:nonzero;stroke:none"
             d="m 0,0 h -8.526 -8.527 c -0.895,0 -1.302,-0.454 -1.302,-2.103 0,-1.648 0.061,-6.335 1.879,-9.266 1.818,-2.93 3.174,-3.608 3.907,-3.961 0.733,-0.353 3.039,-1.674 4.043,-2.922 1.004,1.248 3.31,2.569 4.043,2.922 0.732,0.353 2.088,1.031 3.906,3.961 1.818,2.931 1.879,7.618 1.879,9.266 C 1.302,-0.454 0.896,0 0,0" /></g><g
           transform="translate(12.4102,24.0981)"
           id="g28"><path
             id="path30"
             style="fill:#322d2c;fill-opacity:1;fill-rule:nonzero;stroke:none"
             d="m 0,0 h 8.816 8.817 c 0,0 2.995,0 1.455,2.825 -1.541,2.824 -4.28,5.135 -6.591,5.82 -2.311,0.685 -2.696,2.283 -1.954,3.88 0.742,1.598 -0.3,1.827 -1.727,1.827 -1.426,0 -2.468,-0.229 -1.727,-1.827 C 7.832,10.928 7.447,9.33 5.136,8.645 2.825,7.96 0.085,5.649 -1.455,2.825 -2.996,0 0,0 0,0" /></g></g></g></g></svg>